<svg width="121" height="120" viewBox="0 0 121 120" fill="none" xmlns="http://www.w3.org/2000/svg">
<path d="M112.182 3.88968C106.995 -1.29656 98.6122 -1.29656 93.4259 3.88968L86.2978 10.9941L109.482 34.1783L116.61 27.0502C121.796 21.8639 121.796 13.4807 116.61 8.29444L112.182 3.88968ZM41.3266 55.989C39.8821 57.4335 38.769 59.2096 38.1296 61.1752L31.1199 82.2044C30.4332 84.241 30.9778 86.4907 32.4934 88.03C34.0091 89.5693 36.2588 90.0903 38.3191 89.4035L59.3482 82.3938C61.2901 81.7544 63.0662 80.6414 64.5345 79.1968L104.154 39.554L80.9458 16.3461L41.3266 55.989ZM23.234 13.907C10.6828 13.907 0.499756 24.09 0.499756 36.6412V97.2658C0.499756 109.817 10.6828 120 23.234 120H83.8586C96.4098 120 106.593 109.817 106.593 97.2658V74.5316C106.593 70.3399 103.206 66.9535 99.0147 66.9535C94.8231 66.9535 91.4367 70.3399 91.4367 74.5316V97.2658C91.4367 101.457 88.0502 104.844 83.8586 104.844H23.234C19.0424 104.844 15.6559 101.457 15.6559 97.2658V36.6412C15.6559 32.4496 19.0424 29.0631 23.234 29.0631H45.9682C50.1598 29.0631 53.5463 25.6767 53.5463 21.485C53.5463 17.2934 50.1598 13.907 45.9682 13.907H23.234Z" fill="white"/>
</svg>
