<svg width="180" height="134" viewBox="0 0 180 134" fill="none" xmlns="http://www.w3.org/2000/svg">
<path d="M16.8334 133.667C12.2501 133.667 8.32647 132.035 5.06258 128.771C1.79869 125.507 0.166748 121.583 0.166748 117V17.0002C0.166748 12.4168 1.79869 8.49322 5.06258 5.22933C8.32647 1.96544 12.2501 0.333496 16.8334 0.333496H66.8334L83.5001 17.0002H150.167C154.75 17.0002 158.674 18.6321 161.938 21.896C165.201 25.1599 166.833 29.0835 166.833 33.6668H76.6251L59.9584 17.0002H16.8334V117L36.8334 50.3335H179.333L157.875 121.792C156.764 125.403 154.715 128.285 151.729 130.438C148.743 132.59 145.445 133.667 141.833 133.667H16.8334ZM34.3334 117H141.833L156.833 67.0002H49.3334L34.3334 117Z" fill="#000000"/>
</svg>
