<svg width="167" height="134" viewBox="0 0 167 134" fill="none" xmlns="http://www.w3.org/2000/svg">
<path d="M16.8334 133.667C12.25 133.667 8.32641 132.035 5.06252 128.771C1.79863 125.507 0.166687 121.583 0.166687 117V17.0002C0.166687 12.4168 1.79863 8.49322 5.06252 5.22933C8.32641 1.96544 12.25 0.333496 16.8334 0.333496H66.8334L83.5 17.0002H150.167C154.75 17.0002 158.674 18.6321 161.938 21.896C165.201 25.1599 166.833 29.0835 166.833 33.6668V117C166.833 121.583 165.201 125.507 161.938 128.771C158.674 132.035 154.75 133.667 150.167 133.667H16.8334ZM16.8334 117H150.167V33.6668H76.625L59.9584 17.0002H16.8334V117Z" fill="black"/>
</svg>
