<svg width="175" height="134" viewBox="0 0 175 134" fill="none" xmlns="http://www.w3.org/2000/svg">
<path d="M49.8332 133.667C43.5832 133.667 38.1318 131.688 33.479 127.729C28.8262 123.771 26.0832 118.667 25.2498 112.417C19.9721 109.639 15.8054 105.681 12.7498 100.542C9.69428 95.4029 8.1665 89.7779 8.1665 83.6668C8.1665 76.3057 10.2846 69.7432 14.5207 63.9793C18.7568 58.2154 24.4165 54.2224 31.4998 52.0002L16.4998 37.0002L13.9998 39.5002C12.4721 41.0279 10.5276 41.7918 8.1665 41.7918C5.80539 41.7918 3.86095 41.0279 2.33317 39.5002C0.805393 37.9724 0.0415039 36.0279 0.0415039 33.6668C0.0415039 31.3057 0.805393 29.3613 2.33317 27.8335L18.9998 11.1668C20.5276 9.63905 22.4721 8.87516 24.8332 8.87516C27.1943 8.87516 29.1387 9.63905 30.6665 11.1668C32.1943 12.6946 32.9582 14.6391 32.9582 17.0002C32.9582 19.3613 32.1943 21.3057 30.6665 22.8335L28.1665 25.3335L39.8332 37.0002L46.4998 17.4168C48.1665 12.2779 51.1873 8.146 55.5623 5.021C59.9373 1.896 64.8332 0.333496 70.2498 0.333496H112.75C118.167 0.333496 123.062 1.896 127.437 5.021C131.812 8.146 134.833 12.2779 136.5 17.4168L147.75 51.1668C155.667 52.6946 162.16 56.514 167.229 62.6252C172.298 68.7363 174.833 75.7502 174.833 83.6668C174.833 89.7779 173.305 95.4029 170.25 100.542C167.194 105.681 163.028 109.639 157.75 112.417C156.917 118.667 154.173 123.771 149.521 127.729C144.868 131.688 139.417 133.667 133.167 133.667C127.889 133.667 123.132 132.139 118.896 129.083C114.66 126.028 111.639 122 109.833 117H73.1665C71.361 122 68.3401 126.028 64.104 129.083C59.8679 132.139 55.111 133.667 49.8332 133.667ZM53.1665 50.3335H83.1665V17.0002H70.2498C68.4443 17.0002 66.8471 17.521 65.4582 18.5627C64.0693 19.6043 63.0276 21.0279 62.3332 22.8335L53.1665 50.3335ZM99.8332 50.3335H129.833L120.667 22.8335C119.972 21.0279 118.93 19.6043 117.542 18.5627C116.153 17.521 114.555 17.0002 112.75 17.0002H99.8332V50.3335ZM73.1665 100.333H109.833C111.639 95.3335 114.66 91.3057 118.896 88.2502C123.132 85.1946 127.889 83.6668 133.167 83.6668C137.333 83.6668 141.222 84.6391 144.833 86.5835C148.444 88.5279 151.5 91.1668 154 94.5002C155.25 92.9724 156.257 91.271 157.021 89.396C157.785 87.521 158.167 85.6113 158.167 83.6668C158.167 79.0835 156.535 75.1599 153.271 71.896C150.007 68.6321 146.083 67.0002 141.5 67.0002H41.4998C36.9165 67.0002 32.9929 68.6321 29.729 71.896C26.4651 75.1599 24.8332 79.0835 24.8332 83.6668C24.8332 85.6113 25.2151 87.521 25.979 89.396C26.7429 91.271 27.7498 92.9724 28.9998 94.5002C31.4998 91.1668 34.5554 88.5279 38.1665 86.5835C41.7776 84.6391 45.6665 83.6668 49.8332 83.6668C55.111 83.6668 59.8679 85.1946 64.104 88.2502C68.3401 91.3057 71.361 95.3335 73.1665 100.333ZM49.8332 117C52.1943 117 54.1735 116.202 55.7707 114.604C57.3679 113.007 58.1665 111.028 58.1665 108.667C58.1665 106.306 57.3679 104.327 55.7707 102.729C54.1735 101.132 52.1943 100.333 49.8332 100.333C47.4721 100.333 45.4929 101.132 43.8957 102.729C42.2985 104.327 41.4998 106.306 41.4998 108.667C41.4998 111.028 42.2985 113.007 43.8957 114.604C45.4929 116.202 47.4721 117 49.8332 117ZM133.167 117C135.528 117 137.507 116.202 139.104 114.604C140.701 113.007 141.5 111.028 141.5 108.667C141.5 106.306 140.701 104.327 139.104 102.729C137.507 101.132 135.528 100.333 133.167 100.333C130.805 100.333 128.826 101.132 127.229 102.729C125.632 104.327 124.833 106.306 124.833 108.667C124.833 111.028 125.632 113.007 127.229 114.604C128.826 116.202 130.805 117 133.167 117Z" fill="black"/>
</svg>
