<svg width="169" height="168" viewBox="0 0 169 168" fill="none" xmlns="http://www.w3.org/2000/svg">
<path d="M61.5833 167.333L58.25 140.667C56.4444 139.972 54.7431 139.139 53.1458 138.167C51.5486 137.195 49.9861 136.153 48.4583 135.042L23.6667 145.458L0.75 105.875L22.2083 89.6251C22.0694 88.6529 22 87.7154 22 86.8126V81.1876C22 80.2848 22.0694 79.3473 22.2083 78.3751L0.75 62.1251L23.6667 22.5417L48.4583 32.9584C49.9861 31.8473 51.5833 30.8056 53.25 29.8334C54.9167 28.8612 56.5833 28.0279 58.25 27.3334L61.5833 0.666748H107.417L110.75 27.3334C112.556 28.0279 114.257 28.8612 115.854 29.8334C117.451 30.8056 119.014 31.8473 120.542 32.9584L145.333 22.5417L168.25 62.1251L146.792 78.3751C146.931 79.3473 147 80.2848 147 81.1876V86.8126C147 87.7154 146.861 88.6529 146.583 89.6251L168.042 105.875L145.125 145.458L120.542 135.042C119.014 136.153 117.417 137.195 115.75 138.167C114.083 139.139 112.417 139.972 110.75 140.667L107.417 167.333H61.5833ZM76.1667 150.667H92.625L95.5417 128.583C99.8472 127.472 103.84 125.84 107.521 123.688C111.201 121.535 114.569 118.931 117.625 115.875L138.25 124.417L146.375 110.25L128.458 96.7084C129.153 94.764 129.639 92.7154 129.917 90.5626C130.194 88.4098 130.333 86.2223 130.333 84.0001C130.333 81.7779 130.194 79.5904 129.917 77.4376C129.639 75.2848 129.153 73.2362 128.458 71.2917L146.375 57.7501L138.25 43.5834L117.625 52.3334C114.569 49.139 111.201 46.4654 107.521 44.3126C103.84 42.1598 99.8472 40.5279 95.5417 39.4167L92.8333 17.3334H76.375L73.4583 39.4167C69.1528 40.5279 65.1597 42.1598 61.4792 44.3126C57.7986 46.4654 54.4306 49.0695 51.375 52.1251L30.75 43.5834L22.625 57.7501L40.5417 71.0834C39.8472 73.1667 39.3611 75.2501 39.0833 77.3334C38.8056 79.4167 38.6667 81.639 38.6667 84.0001C38.6667 86.2223 38.8056 88.3751 39.0833 90.4584C39.3611 92.5418 39.8472 94.6251 40.5417 96.7084L22.625 110.25L30.75 124.417L51.375 115.667C54.4306 118.861 57.7986 121.535 61.4792 123.688C65.1597 125.84 69.1528 127.472 73.4583 128.583L76.1667 150.667ZM84.9167 113.167C92.9722 113.167 99.8472 110.32 105.542 104.625C111.236 98.9306 114.083 92.0556 114.083 84.0001C114.083 75.9445 111.236 69.0695 105.542 63.3751C99.8472 57.6806 92.9722 54.8334 84.9167 54.8334C76.7222 54.8334 69.8125 57.6806 64.1875 63.3751C58.5625 69.0695 55.75 75.9445 55.75 84.0001C55.75 92.0556 58.5625 98.9306 64.1875 104.625C69.8125 110.32 76.7222 113.167 84.9167 113.167Z" fill="black"/>
</svg>
