<svg width="185" height="163" viewBox="0 0 185 163" fill="none" xmlns="http://www.w3.org/2000/svg">
<path d="M92.5002 162.667C85.8335 157.389 78.6113 153.292 70.8335 150.375C63.0557 147.458 55.0002 146 46.6668 146C40.8335 146 35.1043 146.764 29.4793 148.292C23.8543 149.819 18.4724 151.972 13.3335 154.75C10.4168 156.278 7.60433 156.208 4.896 154.542C2.18766 152.875 0.833496 150.444 0.833496 147.25V46.8332C0.833496 45.3054 1.21544 43.8471 1.97933 42.4582C2.74322 41.0693 3.88905 40.0276 5.41683 39.3332C11.8057 35.9998 18.4724 33.4998 25.4168 31.8332C32.3613 30.1665 39.4446 29.3332 46.6668 29.3332C54.7224 29.3332 62.6043 30.3748 70.3127 32.4582C78.021 34.5415 85.4168 37.6665 92.5002 41.8332V142.667C99.5835 138.222 107.014 134.889 114.792 132.667C122.57 130.444 130.417 129.333 138.333 129.333C143.333 129.333 148.229 129.75 153.021 130.583C157.813 131.417 162.639 132.667 167.5 134.333V34.3332C169.583 35.0276 171.632 35.7568 173.646 36.5207C175.66 37.2846 177.639 38.2221 179.583 39.3332C181.111 40.0276 182.257 41.0693 183.021 42.4582C183.785 43.8471 184.167 45.3054 184.167 46.8332V147.25C184.167 150.444 182.813 152.875 180.104 154.542C177.396 156.208 174.583 156.278 171.667 154.75C166.528 151.972 161.146 149.819 155.521 148.292C149.896 146.764 144.167 146 138.333 146C130 146 121.945 147.458 114.167 150.375C106.389 153.292 99.1668 157.389 92.5002 162.667ZM109.167 121V41.8332L150.833 0.166504V83.4998L109.167 121ZM75.8335 134.542V52.0415C71.2502 50.0971 66.4932 48.604 61.5627 47.5623C56.6321 46.5207 51.6668 45.9998 46.6668 45.9998C41.5279 45.9998 36.5279 46.4859 31.6668 47.4582C26.8057 48.4304 22.0835 49.8887 17.5002 51.8332V134.542C22.3613 132.736 27.1877 131.417 31.9793 130.583C36.771 129.75 41.6668 129.333 46.6668 129.333C51.6668 129.333 56.5627 129.75 61.3543 130.583C66.146 131.417 70.9724 132.736 75.8335 134.542Z" fill="black"/>
</svg>
